<svg id="my-svg" width="100%" xmlns="http://www.w3.org/2000/svg" xmlns:xlink="http://www.w3.org/1999/xlink" class="flowchart" style="max-width: 2297.86px; background-color: transparent;" viewBox="0 0 2297.86328125 1306" role="graphics-document document" aria-roledescription="flowchart-v2"><style>#my-svg{font-family:"trebuchet ms",verdana,arial,sans-serif;font-size:16px;fill:#333;}@keyframes edge-animation-frame{from{stroke-dashoffset:0;}}@keyframes dash{to{stroke-dashoffset:0;}}#my-svg .edge-animation-slow{stroke-dasharray:9,5!important;stroke-dashoffset:900;animation:dash 50s linear infinite;stroke-linecap:round;}#my-svg .edge-animation-fast{stroke-dasharray:9,5!important;stroke-dashoffset:900;animation:dash 20s linear infinite;stroke-linecap:round;}#my-svg .error-icon{fill:#552222;}#my-svg .error-text{fill:#552222;stroke:#552222;}#my-svg .edge-thickness-normal{stroke-width:1px;}#my-svg .edge-thickness-thick{stroke-width:3.5px;}#my-svg .edge-pattern-solid{stroke-dasharray:0;}#my-svg .edge-thickness-invisible{stroke-width:0;fill:none;}#my-svg .edge-pattern-dashed{stroke-dasharray:3;}#my-svg .edge-pattern-dotted{stroke-dasharray:2;}#my-svg .marker{fill:#333333;stroke:#333333;}#my-svg .marker.cross{stroke:#333333;}#my-svg svg{font-family:"trebuchet ms",verdana,arial,sans-serif;font-size:16px;}#my-svg p{margin:0;}#my-svg .label{font-family:"trebuchet ms",verdana,arial,sans-serif;color:#333;}#my-svg .cluster-label text{fill:#333;}#my-svg .cluster-label span{color:#333;}#my-svg .cluster-label span p{background-color:transparent;}#my-svg .label text,#my-svg span{fill:#333;color:#333;}#my-svg .node rect,#my-svg .node circle,#my-svg .node ellipse,#my-svg .node polygon,#my-svg .node path{fill:#ECECFF;stroke:#9370DB;stroke-width:1px;}#my-svg .rough-node .label text,#my-svg .node .label text,#my-svg .image-shape .label,#my-svg .icon-shape .label{text-anchor:middle;}#my-svg .node .katex path{fill:#000;stroke:#000;stroke-width:1px;}#my-svg .rough-node .label,#my-svg .node .label,#my-svg .image-shape .label,#my-svg .icon-shape .label{text-align:center;}#my-svg .node.clickable{cursor:pointer;}#my-svg .root .anchor path{fill:#333333!important;stroke-width:0;stroke:#333333;}#my-svg .arrowheadPath{fill:#333333;}#my-svg .edgePath .path{stroke:#333333;stroke-width:2.0px;}#my-svg .flowchart-link{stroke:#333333;fill:none;}#my-svg .edgeLabel{background-color:rgba(232,232,232, 0.8);text-align:center;}#my-svg .edgeLabel p{background-color:rgba(232,232,232, 0.8);}#my-svg .edgeLabel rect{opacity:0.5;background-color:rgba(232,232,232, 0.8);fill:rgba(232,232,232, 0.8);}#my-svg .labelBkg{background-color:rgba(232, 232, 232, 0.5);}#my-svg .cluster rect{fill:#ffffde;stroke:#aaaa33;stroke-width:1px;}#my-svg .cluster text{fill:#333;}#my-svg .cluster span{color:#333;}#my-svg div.mermaidTooltip{position:absolute;text-align:center;max-width:200px;padding:2px;font-family:"trebuchet ms",verdana,arial,sans-serif;font-size:12px;background:hsl(80, 100%, 96.2745098039%);border:1px solid #aaaa33;border-radius:2px;pointer-events:none;z-index:100;}#my-svg .flowchartTitleText{text-anchor:middle;font-size:18px;fill:#333;}#my-svg rect.text{fill:none;stroke-width:0;}#my-svg .icon-shape,#my-svg .image-shape{background-color:rgba(232,232,232, 0.8);text-align:center;}#my-svg .icon-shape p,#my-svg .image-shape p{background-color:rgba(232,232,232, 0.8);padding:2px;}#my-svg .icon-shape rect,#my-svg .image-shape rect{opacity:0.5;background-color:rgba(232,232,232, 0.8);fill:rgba(232,232,232, 0.8);}#my-svg .label-icon{display:inline-block;height:1em;overflow:visible;vertical-align:-0.125em;}#my-svg .node .label-icon path{fill:currentColor;stroke:revert;stroke-width:revert;}#my-svg :root{--mermaid-font-family:"trebuchet ms",verdana,arial,sans-serif;}</style><g><marker id="my-svg_flowchart-v2-pointEnd" class="marker flowchart-v2" viewBox="0 0 10 10" refX="5" refY="5" markerUnits="userSpaceOnUse" markerWidth="8" markerHeight="8" orient="auto"><path d="M 0 0 L 10 5 L 0 10 z" class="arrowMarkerPath" style="stroke-width: 1; stroke-dasharray: 1, 0;"/></marker><marker id="my-svg_flowchart-v2-pointStart" class="marker flowchart-v2" viewBox="0 0 10 10" refX="4.5" refY="5" markerUnits="userSpaceOnUse" markerWidth="8" markerHeight="8" orient="auto"><path d="M 0 5 L 10 10 L 10 0 z" class="arrowMarkerPath" style="stroke-width: 1; stroke-dasharray: 1, 0;"/></marker><marker id="my-svg_flowchart-v2-circleEnd" class="marker flowchart-v2" viewBox="0 0 10 10" refX="11" refY="5" markerUnits="userSpaceOnUse" markerWidth="11" markerHeight="11" orient="auto"><circle cx="5" cy="5" r="5" class="arrowMarkerPath" style="stroke-width: 1; stroke-dasharray: 1, 0;"/></marker><marker id="my-svg_flowchart-v2-circleStart" class="marker flowchart-v2" viewBox="0 0 10 10" refX="-1" refY="5" markerUnits="userSpaceOnUse" markerWidth="11" markerHeight="11" orient="auto"><circle cx="5" cy="5" r="5" class="arrowMarkerPath" style="stroke-width: 1; stroke-dasharray: 1, 0;"/></marker><marker id="my-svg_flowchart-v2-crossEnd" class="marker cross flowchart-v2" viewBox="0 0 11 11" refX="12" refY="5.2" markerUnits="userSpaceOnUse" markerWidth="11" markerHeight="11" orient="auto"><path d="M 1,1 l 9,9 M 10,1 l -9,9" class="arrowMarkerPath" style="stroke-width: 2; stroke-dasharray: 1, 0;"/></marker><marker id="my-svg_flowchart-v2-crossStart" class="marker cross flowchart-v2" viewBox="0 0 11 11" refX="-1" refY="5.2" markerUnits="userSpaceOnUse" markerWidth="11" markerHeight="11" orient="auto"><path d="M 1,1 l 9,9 M 10,1 l -9,9" class="arrowMarkerPath" style="stroke-width: 2; stroke-dasharray: 1, 0;"/></marker><g class="root"><g class="clusters"><g class="cluster" id="Content" data-look="classic"><rect style="fill:#1a1a2e !important;stroke:#533483 !important" x="8" y="515" width="281.84375" height="378"/><g class="cluster-label" transform="translate(99.6171875, 515)"><foreignObject width="98.609375" height="24"><div xmlns="http://www.w3.org/1999/xhtml" style="display: table-cell; white-space: nowrap; line-height: 1.5; max-width: 200px; text-align: center;"><span class="nodeLabel" style="color:#eee !important"><p>Story Content</p></span></div></foreignObject></g></g><g class="cluster" id="Mistral" data-look="classic"><rect style="fill:#2b1055 !important;stroke:#d63384 !important" x="376.6640625" y="1170" width="1727.9296875" height="128"/><g class="cluster-label" transform="translate(1207.67578125, 1170)"><foreignObject width="65.90625" height="24"><div xmlns="http://www.w3.org/1999/xhtml" style="display: table-cell; white-space: nowrap; line-height: 1.5; max-width: 200px; text-align: center;"><span class="nodeLabel" style="color:#eee !important"><p>Mistral AI</p></span></div></foreignObject></g></g><g class="cluster" id="Vercel" data-look="classic"><rect style="fill:#16213e !important;stroke:#e94560 !important" x="309.84375" y="741" width="1974.65625" height="379"/><g class="cluster-label" transform="translate(1201.234375, 741)"><foreignObject width="191.875" height="24"><div xmlns="http://www.w3.org/1999/xhtml" style="display: table-cell; white-space: nowrap; line-height: 1.5; max-width: 200px; text-align: center;"><span class="nodeLabel" style="color:#eee !important"><p>Vercel (Next.js API Routes)</p></span></div></foreignObject></g></g><g class="cluster" id="ElevenLabs" data-look="classic"><rect style="fill:#0f3460 !important;stroke:#533483 !important" x="1098.4609375" y="362" width="625.75" height="281"/><g class="cluster-label" transform="translate(1311.3984375, 362)"><foreignObject width="199.875" height="24"><div xmlns="http://www.w3.org/1999/xhtml" style="display: table-cell; white-space: nowrap; line-height: 1.5; max-width: 200px; text-align: center;"><span class="nodeLabel" style="color:#eee !important"><p>ElevenLabs ConvAI Platform</p></span></div></foreignObject></g></g><g class="cluster" id="Browser" data-look="classic"><rect style="fill:#1a1a2e !important;stroke:#e94560 !important" x="1087.4609375" y="8" width="1192.11328125" height="280"/><g class="cluster-label" transform="translate(1583.517578125, 8)"><foreignObject width="200" height="48"><div xmlns="http://www.w3.org/1999/xhtml" style="display: table; white-space: break-spaces; line-height: 1.5; max-width: 200px; text-align: center; width: 200px;"><span class="nodeLabel" style="color:#eee !important"><p>Browser (Next.js React App)</p></span></div></foreignObject></g></g><g class="cluster" id="Engine" data-look="classic"><rect style="fill:#0d1b2a !important;stroke:#e94560 !important" x="329.84375" y="943" width="1411.15625" height="152"/><g class="cluster-label" transform="translate(990.953125, 943)"><foreignObject width="88.9375" height="24"><div xmlns="http://www.w3.org/1999/xhtml" style="display: table-cell; white-space: nowrap; line-height: 1.5; max-width: 200px; text-align: center;"><span class="nodeLabel" style="color:#eee !important"><p>Story Engine</p></span></div></foreignObject></g></g></g><g class="edgePaths"><path d="M1528.379,95.862L1487.498,104.551C1446.617,113.241,1364.855,130.621,1335.717,145.179C1306.578,159.737,1330.062,171.474,1341.804,177.343L1353.546,183.212" id="L_UI_EL_SDK_0" class="edge-thickness-normal edge-pattern-solid edge-thickness-normal edge-pattern-solid flowchart-link" style=";" data-edge="true" data-et="edge" data-id="L_UI_EL_SDK_0" data-points="W3sieCI6MTUyOC4zNzg5MDYyNSwieSI6OTUuODYxNzI5OTA1NzE1MDF9LHsieCI6MTI4My4wOTM3NSwieSI6MTQ4fSx7IngiOjEzNTcuMTI0MTc3NjMxNTc5LCJ5IjoxODV9XQ==" marker-end="url(#my-svg_flowchart-v2-pointEnd)"/><path d="M1327.336,259.184L1312.618,263.987C1297.901,268.789,1268.466,278.395,1253.749,289.364C1239.031,300.333,1239.031,312.667,1239.031,325C1239.031,337.333,1239.031,349.667,1239.031,359.333C1239.031,369,1239.031,376,1239.031,379.5L1239.031,383" id="L_EL_SDK_AGENT_0" class="edge-thickness-normal edge-pattern-solid edge-thickness-normal edge-pattern-solid flowchart-link" style=";" data-edge="true" data-et="edge" data-id="L_EL_SDK_AGENT_0" data-points="W3sieCI6MTMyNy4zMzU5Mzc1LCJ5IjoyNTkuMTg0MTkzNzUzOTgzNDR9LHsieCI6MTIzOS4wMzEyNSwieSI6Mjg4fSx7IngiOjEyMzkuMDMxMjUsInkiOjMyNX0seyJ4IjoxMjM5LjAzMTI1LCJ5IjozNjJ9LHsieCI6MTIzOS4wMzEyNSwieSI6Mzg3fV0=" marker-end="url(#my-svg_flowchart-v2-pointEnd)"/><path d="M1225.825,465L1224.414,469.167C1223.003,473.333,1220.181,481.667,1218.77,490C1217.359,498.333,1217.359,506.667,1217.359,516.333C1217.359,526,1217.359,537,1217.359,542.5L1217.359,548" id="L_AGENT_STT_0" class="edge-thickness-normal edge-pattern-solid edge-thickness-normal edge-pattern-solid flowchart-link" style=";" data-edge="true" data-et="edge" data-id="L_AGENT_STT_0" data-points="W3sieCI6MTIyNS44MjQ5NTExNzE4NzUsInkiOjQ2NX0seyJ4IjoxMjE3LjM1OTM3NSwieSI6NDkwfSx7IngiOjEyMTcuMzU5Mzc1LCJ5Ijo1MTV9LHsieCI6MTIxNy4zNTkzNzUsInkiOjU1Mn1d" marker-end="url(#my-svg_flowchart-v2-pointEnd)"/><path d="M1217.359,606L1217.359,612.167C1217.359,618.333,1217.359,630.667,1217.359,645C1217.359,659.333,1217.359,675.667,1217.359,692C1217.359,708.333,1217.359,724.667,1236.781,738.804C1256.202,752.942,1295.044,764.883,1314.466,770.854L1333.887,776.825" id="L_STT_WEBHOOK_0" class="edge-thickness-normal edge-pattern-solid edge-thickness-normal edge-pattern-solid flowchart-link" style=";" data-edge="true" data-et="edge" data-id="L_STT_WEBHOOK_0" data-points="W3sieCI6MTIxNy4zNTkzNzUsInkiOjYwNn0seyJ4IjoxMjE3LjM1OTM3NSwieSI6NjQzfSx7IngiOjEyMTcuMzU5Mzc1LCJ5Ijo2OTJ9LHsieCI6MTIxNy4zNTkzNzUsInkiOjc0MX0seyJ4IjoxMzM3LjcxMDE2NjUyOTYwNTIsInkiOjc3OH1d" marker-end="url(#my-svg_flowchart-v2-pointEnd)"/><path d="M1336.348,826.322L1183.492,837.435C1030.637,848.548,724.926,870.774,572.07,886.054C419.215,901.333,419.215,909.667,419.215,918C419.215,926.333,419.215,934.667,422.858,944.441C426.5,954.215,433.786,965.43,437.429,971.038L441.072,976.646" id="L_WEBHOOK_CB_0" class="edge-thickness-normal edge-pattern-solid edge-thickness-normal edge-pattern-solid flowchart-link" style=";" data-edge="true" data-et="edge" data-id="L_WEBHOOK_CB_0" data-points="W3sieCI6MTMzNi4zNDc2NTYyNSwieSI6ODI2LjMyMTg2MzkwNjQzMX0seyJ4Ijo0MTkuMjE0ODQzNzUsInkiOjg5M30seyJ4Ijo0MTkuMjE0ODQzNzUsInkiOjkxOH0seyJ4Ijo0MTkuMjE0ODQzNzUsInkiOjk0M30seyJ4Ijo0NDMuMjUwNzcwOTcwMzk0NzQsInkiOjk4MH1d" marker-end="url(#my-svg_flowchart-v2-pointEnd)"/><path d="M468.586,1058L468.586,1064.167C468.586,1070.333,468.586,1082.667,468.586,1093C468.586,1103.333,468.586,1111.667,468.586,1120C468.586,1128.333,468.586,1136.667,468.586,1145C468.586,1153.333,468.586,1161.667,478.903,1169.763C489.219,1177.859,509.853,1185.718,520.17,1189.647L530.487,1193.576" id="L_CB_ML_0" class="edge-thickness-normal edge-pattern-solid edge-thickness-normal edge-pattern-solid flowchart-link" style=";" data-edge="true" data-et="edge" data-id="L_CB_ML_0" data-points="W3sieCI6NDY4LjU4NTkzNzUsInkiOjEwNTh9LHsieCI6NDY4LjU4NTkzNzUsInkiOjEwOTV9LHsieCI6NDY4LjU4NTkzNzUsInkiOjExMjB9LHsieCI6NDY4LjU4NTkzNzUsInkiOjExNDV9LHsieCI6NDY4LjU4NTkzNzUsInkiOjExNzB9LHsieCI6NTM0LjIyNDY3MDQxMDE1NjIsInkiOjExOTV9XQ==" marker-end="url(#my-svg_flowchart-v2-pointEnd)"/><path d="M745.465,1228.243L928.984,1218.536C1112.503,1208.829,1479.54,1189.414,1663.059,1175.54C1846.578,1161.667,1846.578,1153.333,1846.578,1145C1846.578,1136.667,1846.578,1128.333,1883.536,1120C1920.495,1111.667,1994.411,1103.333,2031.37,1086.5C2068.328,1069.667,2068.328,1044.333,2068.328,1019C2068.328,993.667,2068.328,968.333,2068.328,951.5C2068.328,934.667,2068.328,926.333,2068.328,918C2068.328,909.667,2068.328,901.333,1989.732,887.273C1911.137,873.213,1753.945,853.426,1675.35,843.533L1596.754,833.639" id="L_ML_WEBHOOK_0" class="edge-thickness-normal edge-pattern-solid edge-thickness-normal edge-pattern-solid flowchart-link" style=";" data-edge="true" data-et="edge" data-id="L_ML_WEBHOOK_0" data-points="W3sieCI6NzQ1LjQ2NDg0Mzc1LCJ5IjoxMjI4LjI0Mjc3MDc1OTU1MDV9LHsieCI6MTg0Ni41NzgxMjUsInkiOjExNzB9LHsieCI6MTg0Ni41NzgxMjUsInkiOjExNDV9LHsieCI6MTg0Ni41NzgxMjUsInkiOjExMjB9LHsieCI6MjA2OC4zMjgxMjUsInkiOjEwOTV9LHsieCI6MjA2OC4zMjgxMjUsInkiOjEwMTl9LHsieCI6MjA2OC4zMjgxMjUsInkiOjk0M30seyJ4IjoyMDY4LjMyODEyNSwieSI6OTE4fSx7IngiOjIwNjguMzI4MTI1LCJ5Ijo4OTN9LHsieCI6MTU5Mi43ODUxNTYyNSwieSI6ODMzLjEzOTg1MjM1NzkzODF9XQ==" marker-end="url(#my-svg_flowchart-v2-pointEnd)"/><path d="M1549.015,778L1562.368,771.833C1575.721,765.667,1602.427,753.333,1615.78,739C1629.133,724.667,1629.133,708.333,1629.133,692C1629.133,675.667,1629.133,659.333,1629.133,640.5C1629.133,621.667,1629.133,600.333,1629.133,579C1629.133,557.667,1629.133,536.333,1629.133,521.5C1629.133,506.667,1629.133,498.333,1582.369,486.495C1535.605,474.656,1442.077,459.312,1395.313,451.64L1348.549,443.967" id="L_WEBHOOK_AGENT_0" class="edge-thickness-normal edge-pattern-solid edge-thickness-normal edge-pattern-solid flowchart-link" style=";" data-edge="true" data-et="edge" data-id="L_WEBHOOK_AGENT_0" data-points="W3sieCI6MTU0OS4wMTQ5NTY4MjU2NTgsInkiOjc3OH0seyJ4IjoxNjI5LjEzMjgxMjUsInkiOjc0MX0seyJ4IjoxNjI5LjEzMjgxMjUsInkiOjY5Mn0seyJ4IjoxNjI5LjEzMjgxMjUsInkiOjY0M30seyJ4IjoxNjI5LjEzMjgxMjUsInkiOjU3OX0seyJ4IjoxNjI5LjEzMjgxMjUsInkiOjUxNX0seyJ4IjoxNjI5LjEzMjgxMjUsInkiOjQ5MH0seyJ4IjoxMzQ0LjYwMTU2MjUsInkiOjQ0My4zMTk4NDg1OTcxMjAxNH1d" marker-end="url(#my-svg_flowchart-v2-pointEnd)"/><path d="M1239.031,465L1239.031,469.167C1239.031,473.333,1239.031,481.667,1239.031,490C1239.031,498.333,1239.031,506.667,1257.102,516.73C1275.173,526.794,1311.314,538.587,1329.385,544.484L1347.455,550.381" id="L_AGENT_TTS_0" class="edge-thickness-normal edge-pattern-solid edge-thickness-normal edge-pattern-solid flowchart-link" style=";" data-edge="true" data-et="edge" data-id="L_AGENT_TTS_0" data-points="W3sieCI6MTIzOS4wMzEyNSwieSI6NDY1fSx7IngiOjEyMzkuMDMxMjUsInkiOjQ5MH0seyJ4IjoxMjM5LjAzMTI1LCJ5Ijo1MTV9LHsieCI6MTM1MS4yNTc4MTI1LCJ5Ijo1NTEuNjIyMDUyMjYyNTg3N31d" marker-end="url(#my-svg_flowchart-v2-pointEnd)"/><path d="M1435.156,540L1435.156,535.833C1435.156,531.667,1435.156,523.333,1435.156,515C1435.156,506.667,1435.156,498.333,1435.156,483.5C1435.156,468.667,1435.156,447.333,1435.156,426C1435.156,404.667,1435.156,383.333,1435.156,366.5C1435.156,349.667,1435.156,337.333,1435.156,325C1435.156,312.667,1435.156,300.333,1435.156,290.667C1435.156,281,1435.156,274,1435.156,270.5L1435.156,267" id="L_TTS_EL_SDK_0" class="edge-thickness-normal edge-pattern-solid edge-thickness-normal edge-pattern-solid flowchart-link" style=";" data-edge="true" data-et="edge" data-id="L_TTS_EL_SDK_0" data-points="W3sieCI6MTQzNS4xNTYyNSwieSI6NTQwfSx7IngiOjE0MzUuMTU2MjUsInkiOjUxNX0seyJ4IjoxNDM1LjE1NjI1LCJ5Ijo0OTB9LHsieCI6MTQzNS4xNTYyNSwieSI6NDI2fSx7IngiOjE0MzUuMTU2MjUsInkiOjM2Mn0seyJ4IjoxNDM1LjE1NjI1LCJ5IjozMjV9LHsieCI6MTQzNS4xNTYyNSwieSI6Mjg4fSx7IngiOjE0MzUuMTU2MjUsInkiOjI2M31d" marker-end="url(#my-svg_flowchart-v2-pointEnd)"/><path d="M1542.977,201.711L1586.279,192.759C1629.581,183.807,1716.185,165.904,1746.934,151.068C1777.682,136.233,1752.575,124.465,1740.022,118.581L1727.468,112.698" id="L_EL_SDK_UI_0" class="edge-thickness-normal edge-pattern-solid edge-thickness-normal edge-pattern-solid flowchart-link" style=";" data-edge="true" data-et="edge" data-id="L_EL_SDK_UI_0" data-points="W3sieCI6MTU0Mi45NzY1NjI1LCJ5IjoyMDEuNzEwNTIxMjgyNjk5NzJ9LHsieCI6MTgwMi43ODkwNjI1LCJ5IjoxNDh9LHsieCI6MTcyMy44NDY0NzQwOTUzOTQ4LCJ5IjoxMTF9XQ==" marker-end="url(#my-svg_flowchart-v2-pointEnd)"/><path d="M1398.668,856L1388.248,862.167C1377.828,868.333,1356.988,880.667,1346.568,891C1336.148,901.333,1336.148,909.667,1336.148,918C1336.148,926.333,1336.148,934.667,1336.148,944.333C1336.148,954,1336.148,965,1336.148,970.5L1336.148,976" id="L_WEBHOOK_SCP_0" class="edge-thickness-normal edge-pattern-solid edge-thickness-normal edge-pattern-solid flowchart-link" style=";" data-edge="true" data-et="edge" data-id="L_WEBHOOK_SCP_0" data-points="W3sieCI6MTM5OC42Njc3MTE3NTk4NjgzLCJ5Ijo4NTZ9LHsieCI6MTMzNi4xNDg0Mzc1LCJ5Ijo4OTN9LHsieCI6MTMzNi4xNDg0Mzc1LCJ5Ijo5MTh9LHsieCI6MTMzNi4xNDg0Mzc1LCJ5Ijo5NDN9LHsieCI6MTMzNi4xNDg0Mzc1LCJ5Ijo5ODB9XQ==" marker-end="url(#my-svg_flowchart-v2-pointEnd)"/><path d="M1336.348,830.682L1239.011,841.068C1141.674,851.454,947.001,872.227,849.665,886.78C752.328,901.333,752.328,909.667,752.328,918C752.328,926.333,752.328,934.667,752.328,942.333C752.328,950,752.328,957,752.328,960.5L752.328,964" id="L_WEBHOOK_SM_0" class="edge-thickness-normal edge-pattern-solid edge-thickness-normal edge-pattern-solid flowchart-link" style=";" data-edge="true" data-et="edge" data-id="L_WEBHOOK_SM_0" data-points="W3sieCI6MTMzNi4zNDc2NTYyNSwieSI6ODMwLjY4MTY5MjI4ODI4NTd9LHsieCI6NzUyLjMyODEyNSwieSI6ODkzfSx7IngiOjc1Mi4zMjgxMjUsInkiOjkxOH0seyJ4Ijo3NTIuMzI4MTI1LCJ5Ijo5NDN9LHsieCI6NzUyLjMyODEyNSwieSI6OTY4fV0=" marker-end="url(#my-svg_flowchart-v2-pointEnd)"/><path d="M1530.465,856L1540.885,862.167C1551.305,868.333,1572.145,880.667,1582.564,891C1592.984,901.333,1592.984,909.667,1592.984,918C1592.984,926.333,1592.984,934.667,1592.984,944.333C1592.984,954,1592.984,965,1592.984,970.5L1592.984,976" id="L_WEBHOOK_ST_0" class="edge-thickness-normal edge-pattern-solid edge-thickness-normal edge-pattern-solid flowchart-link" style=";" data-edge="true" data-et="edge" data-id="L_WEBHOOK_ST_0" data-points="W3sieCI6MTUzMC40NjUxMDA3NDAxMzE3LCJ5Ijo4NTZ9LHsieCI6MTU5Mi45ODQzNzUsInkiOjg5M30seyJ4IjoxNTkyLjk4NDM3NSwieSI6OTE4fSx7IngiOjE1OTIuOTg0Mzc1LCJ5Ijo5NDN9LHsieCI6MTU5Mi45ODQzNzUsInkiOjk4MH1d" marker-end="url(#my-svg_flowchart-v2-pointEnd)"/><path d="M1592.984,1058L1592.984,1064.167C1592.984,1070.333,1592.984,1082.667,1657.576,1093C1722.167,1103.333,1851.349,1111.667,1915.94,1120C1980.531,1128.333,1980.531,1136.667,1980.531,1145C1980.531,1153.333,1980.531,1161.667,1980.531,1169.333C1980.531,1177,1980.531,1184,1980.531,1187.5L1980.531,1191" id="L_ST_MS_0" class="edge-thickness-normal edge-pattern-solid edge-thickness-normal edge-pattern-solid flowchart-link" style=";" data-edge="true" data-et="edge" data-id="L_ST_MS_0" data-points="W3sieCI6MTU5Mi45ODQzNzUsInkiOjEwNTh9LHsieCI6MTU5Mi45ODQzNzUsInkiOjEwOTV9LHsieCI6MTk4MC41MzEyNSwieSI6MTEyMH0seyJ4IjoxOTgwLjUzMTI1LCJ5IjoxMTQ1fSx7IngiOjE5ODAuNTMxMjUsInkiOjExNzB9LHsieCI6MTk4MC41MzEyNSwieSI6MTE5NX1d" marker-end="url(#my-svg_flowchart-v2-pointEnd)"/><path d="M1592.785,845.279L1628.846,853.233C1664.908,861.186,1737.03,877.093,1773.091,889.213C1809.152,901.333,1809.152,909.667,1809.152,918C1809.152,926.333,1809.152,934.667,1816.735,944.597C1824.318,954.527,1839.484,966.053,1847.067,971.816L1854.65,977.58" id="L_WEBHOOK_SESS_0" class="edge-thickness-normal edge-pattern-solid edge-thickness-normal edge-pattern-solid flowchart-link" style=";" data-edge="true" data-et="edge" data-id="L_WEBHOOK_SESS_0" data-points="W3sieCI6MTU5Mi43ODUxNTYyNSwieSI6ODQ1LjI3OTIzMDA1NDE4NjR9LHsieCI6MTgwOS4xNTIzNDM3NSwieSI6ODkzfSx7IngiOjE4MDkuMTUyMzQzNzUsInkiOjkxOH0seyJ4IjoxODA5LjE1MjM0Mzc1LCJ5Ijo5NDN9LHsieCI6MTg1Ny44MzQ2NTI1NDkzNDIsInkiOjk4MH1d" marker-end="url(#my-svg_flowchart-v2-pointEnd)"/><path d="M1752.895,93.758L1799.538,102.798C1846.181,111.839,1939.467,129.919,1986.111,151.626C2032.754,173.333,2032.754,198.667,2032.754,222C2032.754,245.333,2032.754,266.667,2032.754,283.5C2032.754,300.333,2032.754,312.667,2032.754,325C2032.754,337.333,2032.754,349.667,2032.754,366.5C2032.754,383.333,2032.754,404.667,2032.754,426C2032.754,447.333,2032.754,468.667,2032.754,483.5C2032.754,498.333,2032.754,506.667,2032.754,521.5C2032.754,536.333,2032.754,557.667,2032.754,579C2032.754,600.333,2032.754,621.667,2032.754,640.5C2032.754,659.333,2032.754,675.667,2032.754,692C2032.754,708.333,2032.754,724.667,2036.455,738.444C2040.157,752.22,2047.559,763.441,2051.26,769.051L2054.962,774.661" id="L_UI_GSAPI_0" class="edge-thickness-normal edge-pattern-solid edge-thickness-normal edge-pattern-solid flowchart-link" style=";" data-edge="true" data-et="edge" data-id="L_UI_GSAPI_0" data-points="W3sieCI6MTc1Mi44OTQ1MzEyNSwieSI6OTMuNzU3NzY1MzM2NDE0ODl9LHsieCI6MjAzMi43NTM5MDYyNSwieSI6MTQ4fSx7IngiOjIwMzIuNzUzOTA2MjUsInkiOjIyNH0seyJ4IjoyMDMyLjc1MzkwNjI1LCJ5IjoyODh9LHsieCI6MjAzMi43NTM5MDYyNSwieSI6MzI1fSx7IngiOjIwMzIuNzUzOTA2MjUsInkiOjM2Mn0seyJ4IjoyMDMyLjc1MzkwNjI1LCJ5Ijo0MjZ9LHsieCI6MjAzMi43NTM5MDYyNSwieSI6NDkwfSx7IngiOjIwMzIuNzUzOTA2MjUsInkiOjUxNX0seyJ4IjoyMDMyLjc1MzkwNjI1LCJ5Ijo1Nzl9LHsieCI6MjAzMi43NTM5MDYyNSwieSI6NjQzfSx7IngiOjIwMzIuNzUzOTA2MjUsInkiOjY5Mn0seyJ4IjoyMDMyLjc1MzkwNjI1LCJ5Ijo3NDF9LHsieCI6MjA1Ny4xNjQ0NzM2ODQyMTA0LCJ5Ijo3Nzh9XQ==" marker-end="url(#my-svg_flowchart-v2-pointEnd)"/><path d="M1998.867,856L1985.581,862.167C1972.294,868.333,1945.721,880.667,1932.435,891C1919.148,901.333,1919.148,909.667,1919.148,918C1919.148,926.333,1919.148,934.667,1918.424,944.339C1917.7,954.011,1916.251,965.023,1915.526,970.528L1914.802,976.034" id="L_GSAPI_SESS_0" class="edge-thickness-normal edge-pattern-solid edge-thickness-normal edge-pattern-solid flowchart-link" style=";" data-edge="true" data-et="edge" data-id="L_GSAPI_SESS_0" data-points="W3sieCI6MTk5OC44NjY5MzA1MDk4NjgzLCJ5Ijo4NTZ9LHsieCI6MTkxOS4xNDg0Mzc1LCJ5Ijo4OTN9LHsieCI6MTkxOS4xNDg0Mzc1LCJ5Ijo5MTh9LHsieCI6MTkxOS4xNDg0Mzc1LCJ5Ijo5NDN9LHsieCI6MTkxNC4yODAwMTY0NDczNjgzLCJ5Ijo5ODB9XQ==" marker-end="url(#my-svg_flowchart-v2-pointEnd)"/><path d="M2147.829,778L2158.096,771.833C2168.364,765.667,2188.899,753.333,2199.166,739C2209.434,724.667,2209.434,708.333,2209.434,692C2209.434,675.667,2209.434,659.333,2209.434,640.5C2209.434,621.667,2209.434,600.333,2209.434,579C2209.434,557.667,2209.434,536.333,2209.434,521.5C2209.434,506.667,2209.434,498.333,2209.434,483.5C2209.434,468.667,2209.434,447.333,2209.434,426C2209.434,404.667,2209.434,383.333,2209.434,366.5C2209.434,349.667,2209.434,337.333,2209.434,325C2209.434,312.667,2209.434,300.333,2209.434,283.5C2209.434,266.667,2209.434,245.333,2209.434,222C2209.434,198.667,2209.434,173.333,2134.005,150.588C2058.575,127.843,1907.717,107.686,1832.288,97.608L1756.859,87.529" id="L_GSAPI_UI_0" class="edge-thickness-normal edge-pattern-solid edge-thickness-normal edge-pattern-solid flowchart-link" style=";" data-edge="true" data-et="edge" data-id="L_GSAPI_UI_0" data-points="W3sieCI6MjE0Ny44MjkwNTAxNjQ0NzM4LCJ5Ijo3Nzh9LHsieCI6MjIwOS40MzM1OTM3NSwieSI6NzQxfSx7IngiOjIyMDkuNDMzNTkzNzUsInkiOjY5Mn0seyJ4IjoyMjA5LjQzMzU5Mzc1LCJ5Ijo2NDN9LHsieCI6MjIwOS40MzM1OTM3NSwieSI6NTc5fSx7IngiOjIyMDkuNDMzNTkzNzUsInkiOjUxNX0seyJ4IjoyMjA5LjQzMzU5Mzc1LCJ5Ijo0OTB9LHsieCI6MjIwOS40MzM1OTM3NSwieSI6NDI2fSx7IngiOjIyMDkuNDMzNTkzNzUsInkiOjM2Mn0seyJ4IjoyMjA5LjQzMzU5Mzc1LCJ5IjozMjV9LHsieCI6MjIwOS40MzM1OTM3NSwieSI6Mjg4fSx7IngiOjIyMDkuNDMzNTkzNzUsInkiOjIyNH0seyJ4IjoyMjA5LjQzMzU5Mzc1LCJ5IjoxNDh9LHsieCI6MTc1Mi44OTQ1MzEyNSwieSI6ODYuOTk5MzY4MTgzOTQwODl9XQ==" marker-end="url(#my-svg_flowchart-v2-pointEnd)"/><path d="M1528.379,91.358L1473.632,100.798C1418.885,110.238,1309.392,129.119,1254.645,144.06C1199.898,159,1199.898,170,1199.898,175.5L1199.898,181" id="L_UI_SA_0" class="edge-thickness-normal edge-pattern-solid edge-thickness-normal edge-pattern-solid flowchart-link" style=";" data-edge="true" data-et="edge" data-id="L_UI_SA_0" data-points="W3sieCI6MTUyOC4zNzg5MDYyNSwieSI6OTEuMzU3NTA1NjA1ODI4M30seyJ4IjoxMTk5Ljg5ODQzNzUsInkiOjE0OH0seyJ4IjoxMTk5Ljg5ODQzNzUsInkiOjE4NX1d" marker-end="url(#my-svg_flowchart-v2-pointEnd)"/><path d="M148.922,868L148.922,872.167C148.922,876.333,148.922,884.667,224.178,893C299.434,901.333,449.945,909.667,525.201,918C600.457,926.333,600.457,934.667,590.335,944.667C580.212,954.668,559.967,966.335,549.845,972.169L539.722,978.003" id="L_YAML_CB_0" class="edge-thickness-normal edge-pattern-solid edge-thickness-normal edge-pattern-solid flowchart-link" style=";" data-edge="true" data-et="edge" data-id="L_YAML_CB_0" data-points="W3sieCI6MTQ4LjkyMTg3NSwieSI6ODY4fSx7IngiOjE0OC45MjE4NzUsInkiOjg5M30seyJ4Ijo2MDAuNDU3MDMxMjUsInkiOjkxOH0seyJ4Ijo2MDAuNDU3MDMxMjUsInkiOjk0M30seyJ4Ijo1MzYuMjU2NjMwMzQ1Mzk0OCwieSI6OTgwfV0=" marker-end="url(#my-svg_flowchart-v2-pointEnd)"/><path d="M148.922,618L148.922,622.167C148.922,626.333,148.922,634.667,148.922,647C148.922,659.333,148.922,675.667,148.922,692C148.922,708.333,148.922,724.667,148.922,736.333C148.922,748,148.922,755,148.922,758.5L148.922,762" id="L_SCHEMA_YAML_0" class="edge-thickness-normal edge-pattern-solid edge-thickness-normal edge-pattern-solid flowchart-link" style=";" data-edge="true" data-et="edge" data-id="L_SCHEMA_YAML_0" data-points="W3sieCI6MTQ4LjkyMTg3NSwieSI6NjE4fSx7IngiOjE0OC45MjE4NzUsInkiOjY0M30seyJ4IjoxNDguOTIxODc1LCJ5Ijo2OTJ9LHsieCI6MTQ4LjkyMTg3NSwieSI6NzQxfSx7IngiOjE0OC45MjE4NzUsInkiOjc2Nn1d" marker-end="url(#my-svg_flowchart-v2-pointEnd)"/></g><g class="edgeLabels"><g class="edgeLabel" transform="translate(1283.09375, 148)"><g class="label" data-id="L_UI_EL_SDK_0" transform="translate(-63.1953125, -12)"><foreignObject width="126.390625" height="24"><div xmlns="http://www.w3.org/1999/xhtml" class="labelBkg" style="display: table-cell; white-space: nowrap; line-height: 1.5; max-width: 200px; text-align: center;"><span class="edgeLabel"><p>Microphone audio</p></span></div></foreignObject></g></g><g class="edgeLabel" transform="translate(1239.03125, 325)"><g class="label" data-id="L_EL_SDK_AGENT_0" transform="translate(-29.03125, -12)"><foreignObject width="58.0625" height="24"><div xmlns="http://www.w3.org/1999/xhtml" class="labelBkg" style="display: table-cell; white-space: nowrap; line-height: 1.5; max-width: 200px; text-align: center;"><span class="edgeLabel"><p>WebRTC</p></span></div></foreignObject></g></g><g class="edgeLabel"><g class="label" data-id="L_AGENT_STT_0" transform="translate(0, 0)"><foreignObject width="0" height="0"><div xmlns="http://www.w3.org/1999/xhtml" class="labelBkg" style="display: table-cell; white-space: nowrap; line-height: 1.5; max-width: 200px; text-align: center;"><span class="edgeLabel"></span></div></foreignObject></g></g><g class="edgeLabel" transform="translate(1217.359375, 692)"><g class="label" data-id="L_STT_WEBHOOK_0" transform="translate(-72.3984375, -24)"><foreignObject width="144.796875" height="48"><div xmlns="http://www.w3.org/1999/xhtml" class="labelBkg" style="display: table-cell; white-space: nowrap; line-height: 1.5; max-width: 200px; text-align: center;"><span class="edgeLabel"><p>Transcribed text +<br />conversation history</p></span></div></foreignObject></g></g><g class="edgeLabel"><g class="label" data-id="L_WEBHOOK_CB_0" transform="translate(0, 0)"><foreignObject width="0" height="0"><div xmlns="http://www.w3.org/1999/xhtml" class="labelBkg" style="display: table-cell; white-space: nowrap; line-height: 1.5; max-width: 200px; text-align: center;"><span class="edgeLabel"></span></div></foreignObject></g></g><g class="edgeLabel"><g class="label" data-id="L_CB_ML_0" transform="translate(0, 0)"><foreignObject width="0" height="0"><div xmlns="http://www.w3.org/1999/xhtml" class="labelBkg" style="display: table-cell; white-space: nowrap; line-height: 1.5; max-width: 200px; text-align: center;"><span class="edgeLabel"></span></div></foreignObject></g></g><g class="edgeLabel" transform="translate(2068.328125, 1019)"><g class="label" data-id="L_ML_WEBHOOK_0" transform="translate(-47.3515625, -24)"><foreignObject width="94.703125" height="48"><div xmlns="http://www.w3.org/1999/xhtml" class="labelBkg" style="display: table-cell; white-space: nowrap; line-height: 1.5; max-width: 200px; text-align: center;"><span class="edgeLabel"><p>SSE stream<br />(text chunks)</p></span></div></foreignObject></g></g><g class="edgeLabel" transform="translate(1629.1328125, 579)"><g class="label" data-id="L_WEBHOOK_AGENT_0" transform="translate(-75.078125, -24)"><foreignObject width="150.15625" height="48"><div xmlns="http://www.w3.org/1999/xhtml" class="labelBkg" style="display: table-cell; white-space: nowrap; line-height: 1.5; max-width: 200px; text-align: center;"><span class="edgeLabel"><p>SSE response<br />([SOUND:x] stripped)</p></span></div></foreignObject></g></g><g class="edgeLabel"><g class="label" data-id="L_AGENT_TTS_0" transform="translate(0, 0)"><foreignObject width="0" height="0"><div xmlns="http://www.w3.org/1999/xhtml" class="labelBkg" style="display: table-cell; white-space: nowrap; line-height: 1.5; max-width: 200px; text-align: center;"><span class="edgeLabel"></span></div></foreignObject></g></g><g class="edgeLabel" transform="translate(1435.15625, 426)"><g class="label" data-id="L_TTS_EL_SDK_0" transform="translate(-51.046875, -12)"><foreignObject width="102.09375" height="24"><div xmlns="http://www.w3.org/1999/xhtml" class="labelBkg" style="display: table-cell; white-space: nowrap; line-height: 1.5; max-width: 200px; text-align: center;"><span class="edgeLabel"><p>WebRTC audio</p></span></div></foreignObject></g></g><g class="edgeLabel" transform="translate(1715.57183, 166.03025)"><g class="label" data-id="L_EL_SDK_UI_0" transform="translate(-54.625, -12)"><foreignObject width="109.25" height="24"><div xmlns="http://www.w3.org/1999/xhtml" class="labelBkg" style="display: table-cell; white-space: nowrap; line-height: 1.5; max-width: 200px; text-align: center;"><span class="edgeLabel"><p>Speaker output</p></span></div></foreignObject></g></g><g class="edgeLabel"><g class="label" data-id="L_WEBHOOK_SCP_0" transform="translate(0, 0)"><foreignObject width="0" height="0"><div xmlns="http://www.w3.org/1999/xhtml" class="labelBkg" style="display: table-cell; white-space: nowrap; line-height: 1.5; max-width: 200px; text-align: center;"><span class="edgeLabel"></span></div></foreignObject></g></g><g class="edgeLabel"><g class="label" data-id="L_WEBHOOK_SM_0" transform="translate(0, 0)"><foreignObject width="0" height="0"><div xmlns="http://www.w3.org/1999/xhtml" class="labelBkg" style="display: table-cell; white-space: nowrap; line-height: 1.5; max-width: 200px; text-align: center;"><span class="edgeLabel"></span></div></foreignObject></g></g><g class="edgeLabel"><g class="label" data-id="L_WEBHOOK_ST_0" transform="translate(0, 0)"><foreignObject width="0" height="0"><div xmlns="http://www.w3.org/1999/xhtml" class="labelBkg" style="display: table-cell; white-space: nowrap; line-height: 1.5; max-width: 200px; text-align: center;"><span class="edgeLabel"></span></div></foreignObject></g></g><g class="edgeLabel"><g class="label" data-id="L_ST_MS_0" transform="translate(0, 0)"><foreignObject width="0" height="0"><div xmlns="http://www.w3.org/1999/xhtml" class="labelBkg" style="display: table-cell; white-space: nowrap; line-height: 1.5; max-width: 200px; text-align: center;"><span class="edgeLabel"></span></div></foreignObject></g></g><g class="edgeLabel"><g class="label" data-id="L_WEBHOOK_SESS_0" transform="translate(0, 0)"><foreignObject width="0" height="0"><div xmlns="http://www.w3.org/1999/xhtml" class="labelBkg" style="display: table-cell; white-space: nowrap; line-height: 1.5; max-width: 200px; text-align: center;"><span class="edgeLabel"></span></div></foreignObject></g></g><g class="edgeLabel" transform="translate(2032.75390625, 426)"><g class="label" data-id="L_UI_GSAPI_0" transform="translate(-76.25, -24)"><foreignObject width="152.5" height="48"><div xmlns="http://www.w3.org/1999/xhtml" class="labelBkg" style="display: table-cell; white-space: nowrap; line-height: 1.5; max-width: 200px; text-align: center;"><span class="edgeLabel"><p>GET /api/game-state<br />every 3s</p></span></div></foreignObject></g></g><g class="edgeLabel"><g class="label" data-id="L_GSAPI_SESS_0" transform="translate(0, 0)"><foreignObject width="0" height="0"><div xmlns="http://www.w3.org/1999/xhtml" class="labelBkg" style="display: table-cell; white-space: nowrap; line-height: 1.5; max-width: 200px; text-align: center;"><span class="edgeLabel"></span></div></foreignObject></g></g><g class="edgeLabel" transform="translate(2209.43359375, 426)"><g class="label" data-id="L_GSAPI_UI_0" transform="translate(-80.4296875, -24)"><foreignObject width="160.859375" height="48"><div xmlns="http://www.w3.org/1999/xhtml" class="labelBkg" style="display: table-cell; white-space: nowrap; line-height: 1.5; max-width: 200px; text-align: center;"><span class="edgeLabel"><p>phase, beat, choices,<br />sound cues, gameOver</p></span></div></foreignObject></g></g><g class="edgeLabel"><g class="label" data-id="L_UI_SA_0" transform="translate(0, 0)"><foreignObject width="0" height="0"><div xmlns="http://www.w3.org/1999/xhtml" class="labelBkg" style="display: table-cell; white-space: nowrap; line-height: 1.5; max-width: 200px; text-align: center;"><span class="edgeLabel"></span></div></foreignObject></g></g><g class="edgeLabel"><g class="label" data-id="L_YAML_CB_0" transform="translate(0, 0)"><foreignObject width="0" height="0"><div xmlns="http://www.w3.org/1999/xhtml" class="labelBkg" style="display: table-cell; white-space: nowrap; line-height: 1.5; max-width: 200px; text-align: center;"><span class="edgeLabel"></span></div></foreignObject></g></g><g class="edgeLabel"><g class="label" data-id="L_SCHEMA_YAML_0" transform="translate(0, 0)"><foreignObject width="0" height="0"><div xmlns="http://www.w3.org/1999/xhtml" class="labelBkg" style="display: table-cell; white-space: nowrap; line-height: 1.5; max-width: 200px; text-align: center;"><span class="edgeLabel"></span></div></foreignObject></g></g></g><g class="nodes"><g class="node default" id="flowchart-UI-0" transform="translate(1640.63671875, 72)"><rect class="basic label-container" style="" x="-112.2578125" y="-39" width="224.515625" height="78"/><g class="label" style="" transform="translate(-82.2578125, -24)"><rect/><foreignObject width="164.515625" height="48"><div xmlns="http://www.w3.org/1999/xhtml" style="display: table-cell; white-space: nowrap; line-height: 1.5; max-width: 200px; text-align: center;"><span class="nodeLabel"><p>Game UI<br /><small>GameContext + useReducer</small></p></span></div></foreignObject></g></g><g class="node default" id="flowchart-SA-1" transform="translate(1199.8984375, 224)"><rect class="basic label-container" style="" x="-77.4375" y="-39" width="154.875" height="78"/><g class="label" style="" transform="translate(-47.4375, -24)"><rect/><foreignObject width="94.875" height="48"><div xmlns="http://www.w3.org/1999/xhtml" style="display: table-cell; white-space: nowrap; line-height: 1.5; max-width: 200px; text-align: center;"><span class="nodeLabel"><p>Sound Engine<br /><small>Web Audio API</small></p></span></div></foreignObject></g></g><g class="node default" id="flowchart-EL_SDK-2" transform="translate(1435.15625, 224)"><rect class="basic label-container" style="" x="-107.8203125" y="-39" width="215.640625" height="78"/><g class="label" style="" transform="translate(-77.8203125, -24)"><rect/><foreignObject width="155.640625" height="48"><div xmlns="http://www.w3.org/1999/xhtml" style="display: table-cell; white-space: nowrap; line-height: 1.5; max-width: 200px; text-align: center;"><span class="nodeLabel"><p>ElevenLabs React SDK<br /><small>useConversation hook</small></p></span></div></foreignObject></g></g><g class="node default" id="flowchart-STT-3" transform="translate(1217.359375, 579)"><rect class="basic label-container" style="" x="-83.8984375" y="-27" width="167.796875" height="54"/><g class="label" style="" transform="translate(-53.8984375, -12)"><rect/><foreignObject width="107.796875" height="24"><div xmlns="http://www.w3.org/1999/xhtml" style="display: table-cell; white-space: nowrap; line-height: 1.5; max-width: 200px; text-align: center;"><span class="nodeLabel"><p>Speech-to-Text</p></span></div></foreignObject></g></g><g class="node default" id="flowchart-TTS-4" transform="translate(1435.15625, 579)"><rect class="basic label-container" style="" x="-83.8984375" y="-39" width="167.796875" height="78"/><g class="label" style="" transform="translate(-53.8984375, -24)"><rect/><foreignObject width="107.796875" height="48"><div xmlns="http://www.w3.org/1999/xhtml" style="display: table-cell; white-space: nowrap; line-height: 1.5; max-width: 200px; text-align: center;"><span class="nodeLabel"><p>Text-to-Speech<br /><small>Elara's voice</small></p></span></div></foreignObject></g></g><g class="node default" id="flowchart-AGENT-5" transform="translate(1239.03125, 426)"><rect class="basic label-container" style="" x="-105.5703125" y="-39" width="211.140625" height="78"/><g class="label" style="" transform="translate(-75.5703125, -24)"><rect/><foreignObject width="151.140625" height="48"><div xmlns="http://www.w3.org/1999/xhtml" style="display: table-cell; white-space: nowrap; line-height: 1.5; max-width: 200px; text-align: center;"><span class="nodeLabel"><p>Conversational Agent<br /><small>WebRTC session manager</small></p></span></div></foreignObject></g></g><g class="node default" id="flowchart-WEBHOOK-6" transform="translate(1464.56640625, 817)"><rect class="basic label-container" style="" x="-128.21875" y="-39" width="256.4375" height="78"/><g class="label" style="" transform="translate(-98.21875, -24)"><rect/><foreignObject width="196.4375" height="48"><div xmlns="http://www.w3.org/1999/xhtml" style="display: table-cell; white-space: nowrap; line-height: 1.5; max-width: 200px; text-align: center;"><span class="nodeLabel"><p>/api/llm/chat/completions<br /><small>Custom LLM Webhook</small></p></span></div></foreignObject></g></g><g class="node default" id="flowchart-GSAPI-7" transform="translate(2082.89453125, 817)"><rect class="basic label-container" style="" x="-95.84375" y="-39" width="191.6875" height="78"/><g class="label" style="" transform="translate(-65.84375, -24)"><rect/><foreignObject width="131.6875" height="48"><div xmlns="http://www.w3.org/1999/xhtml" style="display: table-cell; white-space: nowrap; line-height: 1.5; max-width: 200px; text-align: center;"><span class="nodeLabel"><p>/api/game-state<br /><small>State Polling Endpoint</small></p></span></div></foreignObject></g></g><g class="node default" id="flowchart-SESS-8" transform="translate(1909.1484375, 1019)"><rect class="basic label-container" style="" x="-76.828125" y="-39" width="153.65625" height="78"/><g class="label" style="" transform="translate(-46.828125, -24)"><rect/><foreignObject width="93.65625" height="48"><div xmlns="http://www.w3.org/1999/xhtml" style="display: table-cell; white-space: nowrap; line-height: 1.5; max-width: 200px; text-align: center;"><span class="nodeLabel"><p>Session Store<br /><small>In-memory Map</small></p></span></div></foreignObject></g></g><g class="node default" id="flowchart-CB-9" transform="translate(468.5859375, 1019)"><rect class="basic label-container" style="" x="-103.7421875" y="-39" width="207.484375" height="78"/><g class="label" style="" transform="translate(-73.7421875, -24)"><rect/><foreignObject width="147.484375" height="48"><div xmlns="http://www.w3.org/1999/xhtml" style="display: table-cell; white-space: nowrap; line-height: 1.5; max-width: 200px; text-align: center;"><span class="nodeLabel"><p>Context Builder<br /><small>5-layer prompt assembly</small></p></span></div></foreignObject></g></g><g class="node default" id="flowchart-SM-10" transform="translate(752.328125, 1019)"><rect class="basic label-container" style="" x="-130" y="-51" width="260" height="102"/><g class="label" style="" transform="translate(-100, -36)"><rect/><foreignObject width="200" height="72"><div xmlns="http://www.w3.org/1999/xhtml" style="display: table; white-space: break-spaces; line-height: 1.5; max-width: 200px; text-align: center; width: 200px;"><span class="nodeLabel"><p>State Machine<br /><small>Pure functions, dot-path mutations</small></p></span></div></foreignObject></g></g><g class="node default" id="flowchart-RE-11" transform="translate(1062.328125, 1019)"><rect class="basic label-container" style="" x="-130" y="-51" width="260" height="102"/><g class="label" style="" transform="translate(-100, -36)"><rect/><foreignObject width="200" height="72"><div xmlns="http://www.w3.org/1999/xhtml" style="display: table; white-space: break-spaces; line-height: 1.5; max-width: 200px; text-align: center; width: 200px;"><span class="nodeLabel"><p>Rules Engine<br /><small>Intent validation, constraint redirects</small></p></span></div></foreignObject></g></g><g class="node default" id="flowchart-SCP-12" transform="translate(1336.1484375, 1019)"><rect class="basic label-container" style="" x="-93.8203125" y="-39" width="187.640625" height="78"/><g class="label" style="" transform="translate(-63.8203125, -24)"><rect/><foreignObject width="127.640625" height="48"><div xmlns="http://www.w3.org/1999/xhtml" style="display: table-cell; white-space: nowrap; line-height: 1.5; max-width: 200px; text-align: center;"><span class="nodeLabel"><p>Sound Cue Parser<br /><small>[SOUND:x] extraction</small></p></span></div></foreignObject></g></g><g class="node default" id="flowchart-ST-13" transform="translate(1592.984375, 1019)"><rect class="basic label-container" style="" x="-113.015625" y="-39" width="226.03125" height="78"/><g class="label" style="" transform="translate(-83.015625, -24)"><rect/><foreignObject width="166.03125" height="48"><div xmlns="http://www.w3.org/1999/xhtml" style="display: table-cell; white-space: nowrap; line-height: 1.5; max-width: 200px; text-align: center;"><span class="nodeLabel"><p>Style Tracker<br /><small>Player therapy style scoring</small></p></span></div></foreignObject></g></g><g class="node default" id="flowchart-ML-14" transform="translate(636.62109375, 1234)"><rect class="basic label-container" style="" x="-108.84375" y="-39" width="217.6875" height="78"/><g class="label" style="" transform="translate(-78.84375, -24)"><rect/><foreignObject width="157.6875" height="48"><div xmlns="http://www.w3.org/1999/xhtml" style="display: table-cell; white-space: nowrap; line-height: 1.5; max-width: 200px; text-align: center;"><span class="nodeLabel"><p>Mistral Large<br /><small>Story narration, streaming</small></p></span></div></foreignObject></g></g><g class="node default" id="flowchart-MS-15" transform="translate(1980.53125, 1234)"><rect class="basic label-container" style="" x="-89.0625" y="-39" width="178.125" height="78"/><g class="label" style="" transform="translate(-59.0625, -24)"><rect/><foreignObject width="118.125" height="48"><div xmlns="http://www.w3.org/1999/xhtml" style="display: table-cell; white-space: nowrap; line-height: 1.5; max-width: 200px; text-align: center;"><span class="nodeLabel"><p>Mistral Small<br /><small>Intent classification</small></p></span></div></foreignObject></g></g><g class="node default" id="flowchart-YAML-16" transform="translate(148.921875, 817)"><rect class="basic label-container" style="" x="-105.921875" y="-51" width="211.84375" height="102"/><g class="label" style="" transform="translate(-75.921875, -36)"><rect/><foreignObject width="151.84375" height="72"><div xmlns="http://www.w3.org/1999/xhtml" style="display: table-cell; white-space: nowrap; line-height: 1.5; max-width: 200px; text-align: center;"><span class="nodeLabel"><p>YAML Story Files<br /><small>arc, world, characters,<br />prompts, sounds, endings</small></p></span></div></foreignObject></g></g><g class="node default" id="flowchart-SCHEMA-17" transform="translate(148.921875, 579)"><rect class="basic label-container" style="" x="-83.6640625" y="-39" width="167.328125" height="78"/><g class="label" style="" transform="translate(-53.6640625, -24)"><rect/><foreignObject width="107.328125" height="48"><div xmlns="http://www.w3.org/1999/xhtml" style="display: table-cell; white-space: nowrap; line-height: 1.5; max-width: 200px; text-align: center;"><span class="nodeLabel"><p>JSON Schemas<br /><small>Per-file validation</small></p></span></div></foreignObject></g></g></g></g></g></svg>